<svg aria-hidden="true" style="position: absolute; width: 0; height: 0; overflow: hidden;" version="1.1" xmlns="http://www.w3.org/2000/svg" xmlns:xlink="http://www.w3.org/1999/xlink">
<defs>
<symbol id="icon-moon" viewBox="0 0 32 32">
<path d="M16.553 31.755c-4.356 0-8.451-1.697-11.531-4.777s-4.776-7.175-4.776-11.531c0-4.356 1.696-8.451 4.777-11.532 1.563-1.563 3.388-2.772 5.425-3.593 0.426-0.172 0.914-0.047 1.205 0.309s0.317 0.859 0.065 1.242c-3.444 5.235-2.723 12.256 1.715 16.694v0c4.438 4.439 11.459 5.159 16.694 1.715 0.384-0.253 0.887-0.226 1.243 0.065s0.481 0.779 0.309 1.205c-0.821 2.036-2.030 3.861-3.594 5.425-3.080 3.081-7.175 4.777-11.531 4.777zM8.401 3.807c-0.671 0.472-1.304 1.003-1.893 1.593-2.684 2.684-4.161 6.251-4.161 10.046s1.478 7.363 4.161 10.046c2.684 2.684 6.251 4.161 10.046 4.161s7.363-1.478 10.046-4.161c0.59-0.59 1.122-1.222 1.593-1.893-5.531 2.044-11.939 0.76-16.245-3.547v0c0 0 0 0 0 0-4.307-4.307-5.59-10.714-3.546-16.245z"></path>
</symbol>
<symbol id="icon-sun" viewBox="0 0 32 32">
<path d="M16 24.227c-4.537 0-8.227-3.691-8.227-8.227s3.691-8.227 8.227-8.227 8.227 3.691 8.227 8.227-3.691 8.227-8.227 8.227zM16 9.173c-3.764 0-6.827 3.063-6.827 6.827s3.063 6.827 6.827 6.827c3.764 0 6.827-3.063 6.827-6.827s-3.063-6.827-6.827-6.827z"></path>
<path d="M13.828 6.987c-0.204 0-0.401-0.089-0.536-0.249-0.167-0.199-0.211-0.474-0.113-0.715l2.172-5.341c0.107-0.264 0.364-0.436 0.648-0.436s0.541 0.173 0.649 0.437l2.172 5.341c0.098 0.241 0.054 0.516-0.113 0.715s-0.431 0.289-0.685 0.234c-1.335-0.291-2.713-0.291-4.046 0-0.050 0.011-0.1 0.016-0.149 0.016zM16 5.351c0.352 0 0.705 0.018 1.057 0.052l-1.057-2.598-1.057 2.599c0.352-0.035 0.705-0.052 1.057-0.052z"></path>
<path d="M16 31.755c-0.285 0-0.541-0.173-0.649-0.436l-2.172-5.341c-0.098-0.241-0.055-0.516 0.113-0.715s0.431-0.289 0.685-0.233c1.334 0.291 2.711 0.292 4.045 0 0.255-0.057 0.518 0.034 0.685 0.233s0.211 0.474 0.113 0.715l-2.172 5.341c-0.107 0.264-0.364 0.436-0.649 0.436zM14.943 26.597l1.057 2.598 1.057-2.598c-0.704 0.069-1.409 0.069-2.114 0z"></path>
<path d="M6.286 18.872c-0.089 0-0.178-0.017-0.264-0.051l-5.341-2.172c-0.264-0.107-0.437-0.364-0.437-0.649s0.173-0.541 0.437-0.649l5.341-2.172c0.241-0.098 0.516-0.054 0.715 0.113s0.288 0.431 0.233 0.685c-0.146 0.667-0.219 1.348-0.219 2.023s0.074 1.356 0.219 2.023c0.055 0.254-0.035 0.518-0.234 0.685-0.128 0.108-0.288 0.165-0.451 0.165zM2.804 16l2.599 1.057c-0.035-0.352-0.052-0.705-0.052-1.057s0.018-0.705 0.052-1.057l-2.599 1.057z"></path>
<path d="M25.713 18.872c-0.162 0-0.322-0.056-0.451-0.165-0.198-0.168-0.288-0.431-0.233-0.685 0.146-0.667 0.22-1.348 0.22-2.023s-0.074-1.356-0.22-2.023c-0.055-0.254 0.035-0.518 0.233-0.685s0.474-0.211 0.715-0.113l5.341 2.172c0.264 0.107 0.436 0.364 0.436 0.649s-0.173 0.541-0.436 0.649l-5.341 2.172c-0.085 0.034-0.175 0.051-0.264 0.051zM26.597 14.943c0.035 0.352 0.052 0.705 0.052 1.057s-0.017 0.705-0.052 1.057l2.598-1.057-2.598-1.057z"></path>
<path d="M7.596 11.368c-0.020 0-0.040-0.001-0.060-0.002-0.259-0.022-0.484-0.186-0.585-0.425l-2.241-5.312c-0.111-0.263-0.051-0.566 0.15-0.767s0.505-0.261 0.767-0.15l5.312 2.241c0.239 0.101 0.403 0.326 0.425 0.585s-0.101 0.509-0.319 0.649c-0.575 0.369-1.109 0.798-1.586 1.275s-0.906 1.010-1.275 1.586c-0.129 0.201-0.352 0.322-0.589 0.322zM6.669 6.669l1.090 2.585c0.225-0.273 0.462-0.536 0.711-0.784s0.51-0.486 0.784-0.711l-2.585-1.090z"></path>
<path d="M26.645 27.345c-0.092 0-0.184-0.018-0.272-0.055l-5.312-2.241c-0.239-0.101-0.403-0.326-0.425-0.585s0.1-0.509 0.319-0.649c0.575-0.369 1.108-0.798 1.586-1.275s0.906-1.011 1.275-1.586c0.14-0.218 0.389-0.344 0.649-0.319 0.259 0.022 0.484 0.186 0.585 0.425l2.241 5.312c0.111 0.263 0.051 0.566-0.15 0.767-0.133 0.134-0.313 0.205-0.495 0.205zM22.746 24.24l2.585 1.090-1.090-2.585c-0.224 0.273-0.461 0.535-0.71 0.784-0 0-0 0-0 0-0.249 0.249-0.511 0.486-0.784 0.71zM23.035 23.035v0z"></path>
<path d="M24.404 11.368c-0.237 0-0.46-0.12-0.589-0.322-0.369-0.575-0.798-1.108-1.275-1.586s-1.011-0.906-1.586-1.275c-0.218-0.14-0.342-0.39-0.319-0.649s0.186-0.484 0.425-0.585l5.312-2.241c0.262-0.111 0.565-0.051 0.767 0.15s0.261 0.505 0.15 0.767l-2.241 5.312c-0.101 0.239-0.326 0.403-0.585 0.425-0.020 0.001-0.040 0.002-0.060 0.002zM22.746 7.76c0.273 0.224 0.536 0.462 0.784 0.71 0 0 0 0 0 0 0.249 0.249 0.486 0.51 0.71 0.784l1.090-2.585-2.585 1.091z"></path>
<path d="M5.355 27.345c-0.182 0-0.361-0.071-0.495-0.205-0.202-0.201-0.261-0.505-0.15-0.767l2.241-5.312c0.101-0.239 0.326-0.403 0.585-0.425 0.259-0.027 0.509 0.1 0.649 0.319 0.368 0.574 0.798 1.107 1.275 1.585 0.478 0.477 1.011 0.906 1.585 1.275 0.219 0.14 0.342 0.39 0.319 0.649s-0.186 0.485-0.425 0.585l-5.312 2.241c-0.087 0.037-0.18 0.055-0.271 0.055zM7.76 22.746l-1.091 2.585 2.585-1.090c-0.273-0.225-0.535-0.461-0.784-0.71v0c-0.249-0.249-0.486-0.511-0.71-0.785z"></path>
</symbol>
</defs>
</svg>